<svg width="1000" height="1000" viewBox="0 0 1000 1000" fill="none" xmlns="http://www.w3.org/2000/svg">
<path d="M0 114C0 51.0396 51.0395 0 114 0H886C948.961 0 1000 51.0395 1000 114V886C1000 948.96 948.961 1000 886 1000H114C51.0396 1000 0 948.96 0 886V114Z" fill="black"/>
<path d="M370.634 924C359.09 924 353.319 919.775 353.319 911.324C353.319 902.873 358.321 898.263 368.325 897.495L420.272 889.429C435.663 887.124 446.053 883.283 451.44 877.905C456.827 871.759 459.52 860.619 459.52 844.486V153.057C459.52 142.302 457.211 134.619 452.594 130.01C447.976 125.4 438.357 123.095 423.735 123.095C395.261 123.095 367.171 135.387 339.466 159.971C311.762 184.556 293.677 224.121 285.211 278.667L279.439 316.695C277.9 326.683 272.513 331.676 263.278 331.676C251.735 331.676 246.732 325.146 248.272 312.086L258.661 103.505C260.2 85.8349 267.126 77 279.439 77C284.826 77 289.829 78.5365 294.446 81.6095C299.064 83.9143 306.759 86.6031 317.533 89.6762C329.077 92.7492 347.162 94.2857 371.788 94.2857H629.211C653.838 94.2857 671.538 92.7492 682.312 89.6762C693.856 86.6031 701.936 83.9143 706.554 81.6095C711.941 78.5365 716.943 77 721.561 77C733.874 77 740.8 85.8349 742.339 103.505L752.728 312.086C754.268 325.146 749.265 331.676 737.722 331.676C728.487 331.676 723.1 326.683 721.561 316.695L715.789 278.667C708.093 224.121 690.393 184.556 662.688 159.971C634.983 135.387 606.509 123.095 577.265 123.095C562.643 123.095 553.024 125.4 548.406 130.01C543.789 134.619 541.48 142.302 541.48 153.057V844.486C541.48 860.619 544.173 871.759 549.56 877.905C555.717 883.283 566.106 887.124 580.728 889.429L632.675 897.495C642.679 898.263 647.681 902.873 647.681 911.324C647.681 919.775 641.909 924 630.366 924H370.634Z" fill="white"/>
</svg>
